<svg xmlns="http://www.w3.org/2000/svg" width="640" height="400" viewBox="0 0 640 400" role="img" aria-labelledby="title">
  <title id="title">Infographic element detection illustration</title>
  <rect width="640" height="400" fill="#f3f6fa"/>
  <rect x="61" y="46" width="518" height="308" rx="12" fill="#fff" stroke="#dce5f0" stroke-width="2"/>
  <rect x="84" y="66" width="472" height="35" rx="5" fill="#e5edf7"/>
  <rect x="104" y="79" width="156" height="9" rx="4.5" fill="#4f6f95"/>
  <circle cx="527" cy="83" r="8" fill="#a8c3dc"/>
  <rect x="86" y="119" width="212" height="145" rx="7" fill="#f8fafc"/>
  <path d="M111 235V151M111 235h165" stroke="#c5d4e3" stroke-width="2"/>
  <rect x="134" y="190" width="23" height="45" rx="3" fill="#90b4d6"/>
  <rect x="170" y="164" width="23" height="71" rx="3" fill="#628dbb"/>
  <rect x="206" y="181" width="23" height="54" rx="3" fill="#b5cbe0"/>
  <rect x="242" y="141" width="23" height="94" rx="3" fill="#306296"/>
  <rect x="324" y="119" width="214" height="68" rx="7" fill="#f8fafc"/>
  <circle cx="357" cy="152" r="19" fill="#84adc8"/>
  <path d="M350 151h14m-7-7v14" stroke="#fff" stroke-width="3" stroke-linecap="round"/>
  <rect x="391" y="138" width="115" height="9" rx="4" fill="#8da4bb"/>
  <rect x="391" y="156" width="78" height="8" rx="4" fill="#c2d0dd"/>
  <rect x="324" y="203" width="214" height="61" rx="7" fill="#f8fafc"/>
  <circle cx="356" cy="233" r="17" fill="#e4b697"/>
  <path d="m348 235 7-9 10 13" fill="none" stroke="#fff" stroke-width="3" stroke-linecap="round" stroke-linejoin="round"/>
  <rect x="391" y="222" width="104" height="8" rx="4" fill="#8da4bb"/>
  <rect x="391" y="239" width="86" height="8" rx="4" fill="#c2d0dd"/>
  <rect x="86" y="279" width="452" height="51" rx="6" fill="#f8fafc"/>
  <rect x="107" y="296" width="90" height="10" rx="5" fill="#bbcadb"/>
  <rect x="217" y="296" width="67" height="10" rx="5" fill="#d7e1ec"/>
  <rect x="310" y="296" width="118" height="10" rx="5" fill="#b6c9db"/>
  <rect x="456" y="296" width="60" height="10" rx="5" fill="#d7e1ec"/>
  <g fill="none" stroke="#d9776e" stroke-width="3">
    <rect x="126" y="183" width="39" height="60" rx="3"/>
    <rect x="199" y="174" width="37" height="69" rx="3"/>
    <rect x="238" y="134" width="33" height="109" rx="3"/>
    <rect x="331" y="126" width="53" height="53" rx="3"/>
    <rect x="331" y="208" width="51" height="50" rx="3"/>
  </g>
  <g fill="#d9776e">
    <rect x="126" y="173" width="34" height="12" rx="2"/>
    <rect x="331" y="116" width="44" height="12" rx="2"/>
    <rect x="331" y="198" width="44" height="12" rx="2"/>
  </g>
</svg>
